<svg width="32" height="32" viewBox="0 0 32 32" xmlns="http://www.w3.org/2000/svg">
    <rect width="32" height="32" style="fill:lightblue;" />
    <path d="m16 1.5c-8.00813 0-14.5 6.49187-14.5 14.5 0 8.0081 6.49187 14.5 14.5 14.5 8.0081 0 14.5-6.4919 14.5-14.5 0-8.00813-6.4919-14.5-14.5-14.5zm-12.99839 14.2934c1.27608-.4586 2.47072-1.1431 3.53839-2.0434 1.19-1 2.14-2.2 2.83-3.53.8.41 1.58.85 2.35 1.32-2.9633 3.6422-4.925 8.1177-5.50674 13.0171-2.00079-2.2864-3.21326-5.2802-3.21326-8.5571 0-.069.00054-.1379.00161-.2066zm11.56879 13.1289c-2.8414-.3108-5.40758-1.5373-7.39704-3.3781.42413-5.0685 2.38868-9.712 5.43664-13.4342 1 .65 1.96 1.34 2.89 2.08-.19.2-.37.4-.55.62-1.95 2.39-2.85 5.4-2.54 8.48.2124 2.0666.9652 3.9931 2.1604 5.6323zm10.3812-3.4953c-2.3311 2.2143-5.4827 3.573-8.9516 3.573-.0043 0-.0086 0-.0129 0-1.419-1.6228-2.3032-3.6389-2.5271-5.82-.28-2.79.54-5.53 2.31-7.71.17-.21.36-.42.55-.62 3.492 2.9519 6.4203 6.5368 8.6316 10.577zm3.6231-12.7376c.2775 1.057.4253 2.1665.4253 3.3106 0 3.3136-1.2397 6.3376-3.2806 8.6335-2.2334-4.0016-5.1553-7.5589-8.6294-10.5035 1.61-1.39 3.61-2.25 5.77-2.47 1.9987-.2031 3.9644.1615 5.7147 1.0294zm-5.9534-7.87919c2.5033 1.48446 4.4657 3.78505 5.5206 6.53519-1.6936-.6665-3.5332-.9269-5.3919-.7354-2.44.25-4.69 1.24-6.49 2.84-.95-.76-1.94-1.48-2.96-2.15 2.5345-2.83218 5.7199-5.07861 9.3213-6.48979zm-11.9939-.65157c1.6375-.74417 3.4567-1.15864 5.3726-1.15864 1.9318 0 3.7652.42136 5.4132 1.17718-3.4714 1.50237-6.5428 3.75118-9.0132 6.55282-.84-.52-1.7-1.01-2.59-1.47.43-1.06.7-2.19.8-3.36.056-.58513.0578-1.16639.0174-1.74136zm-4.54718 3.43868c.98937-1.16683 2.18092-2.15681 3.52054-2.91584.00959.3753-.00022.75191-.03076 1.12852-.09 1.04-.33 2.04-.7 2.99-.91338-.43813-1.84331-.83766-2.78978-1.20268zm-3.00924 7.03608c.23849-2.2829 1.06778-4.3899 2.33223-6.16565 1.03206.38393 2.04393.80987 3.02679 1.28225-.63 1.21-1.49 2.29-2.57 3.2-.85855.7242-1.80071 1.2811-2.78902 1.6834z" fill="#212121"/>
</svg>
